<?xml version="1.0" encoding="utf-8"?>
<!-- Generator: Adobe Illustrator 22.1.0, SVG Export Plug-In . SVG Version: 6.00 Build 0)  -->
<svg version="1.1" id="Layer_1" xmlns="http://www.w3.org/2000/svg" xmlns:xlink="http://www.w3.org/1999/xlink" x="0px" y="0px"
	 viewBox="0 0 1920 780" style="enable-background:new 0 0 1920 780;" xml:space="preserve">
<style type="text/css">
	.st0{fill:none;}
	.st1{fill:#FF4C48;}
</style>
<g>
	<g>
		<path class="st0" d="M374.9,150.8c-0.5,0.4-0.9,0.7-1.4,1.1C374,151.5,374.5,151.2,374.9,150.8z"/>
		<path class="st0" d="M396.4,125.3c-0.4,0.8-0.8,1.6-1.3,2.3C395.6,126.9,396,126.1,396.4,125.3z"/>
		<path class="st0" d="M399.9,117.4c-0.3,0.8-0.6,1.6-0.9,2.4C399.3,119,399.7,118.2,399.9,117.4z"/>
		<path class="st0" d="M399,119.8c-0.3,0.8-0.7,1.6-1,2.4C398.3,121.4,398.7,120.6,399,119.8z"/>
		<path class="st0" d="M384.3,142.3c-0.7,0.7-1.3,1.4-2,2.1C383,143.7,383.6,143,384.3,142.3z"/>
		<path class="st0" d="M377.2,149c-0.4,0.4-0.9,0.7-1.3,1.1C376.3,149.7,376.7,149.4,377.2,149z"/>
		<path class="st0" d="M379.4,147.1c-0.4,0.4-0.9,0.8-1.3,1.2C378.5,147.9,379,147.5,379.4,147.1z"/>
		<path class="st0" d="M381.6,145c-0.5,0.4-0.9,0.9-1.4,1.3C380.7,145.9,381.2,145.5,381.6,145z"/>
		<path class="st0" d="M397.6,122.9c-0.3,0.6-0.6,1.2-0.9,1.7C397.1,124.1,397.4,123.5,397.6,122.9z"/>
		<path class="st0" d="M403.7,100.6c-0.1,0.9-0.2,1.7-0.3,2.6C403.5,102.3,403.6,101.5,403.7,100.6z"/>
		<path class="st0" d="M403.4,103.2c-0.1,0.9-0.2,1.7-0.4,2.6C403.2,104.9,403.3,104.1,403.4,103.2z"/>
		<path class="st0" d="M953.7,187.3c0,1.2,0,2.5,0,3.7C953.8,189.7,953.7,188.5,953.7,187.3z"/>
		<path class="st0" d="M400.8,114.9c-0.2,0.6-0.4,1.2-0.6,1.8C400.4,116.1,400.6,115.5,400.8,114.9z"/>
		<path class="st0" d="M1167.7,41C1167.7,41,1167.7,41,1167.7,41c-19.1-9.6-38.5-14.3-58.3-14.3h0
			C1129.2,26.6,1148.6,31.4,1167.7,41C1167.7,41,1167.7,41,1167.7,41z"/>
		<path class="st0" d="M402.9,106.5c-0.1,0.6-0.2,1.3-0.4,1.9C402.7,107.8,402.8,107.2,402.9,106.5z"/>
		<path class="st0" d="M402.4,109.2c-0.2,0.8-0.4,1.7-0.6,2.5C402,110.8,402.2,110,402.4,109.2z"/>
		<path class="st0" d="M401.8,111.7c-0.2,0.8-0.5,1.7-0.7,2.5C401.3,113.3,401.5,112.5,401.8,111.7z"/>
		<path class="st0" d="M350.5,165.4c0.1,0,0.1,0,0.2,0.1C350.6,165.5,350.6,165.5,350.5,165.4z"/>
		<polygon class="st0" points="359.6,169.3 359.6,169.3 359.6,169.3 		"/>
		<polygon class="st0" points="357.6,168.3 357.6,168.3 357.6,168.3 		"/>
		<polygon class="st0" points="353.2,166.4 353.2,166.4 353.2,166.4 		"/>
		<path class="st0" d="M372.6,152.5c-0.5,0.4-1.1,0.7-1.6,1.1C371.6,153.3,372.1,152.9,372.6,152.5z"/>
		<polygon class="st0" points="364.9,172.6 364.9,172.6 364.9,172.6 		"/>
		<path class="st0" d="M361.7,170.5C361.7,170.5,361.8,170.5,361.7,170.5C361.8,170.5,361.7,170.5,361.7,170.5z"/>
		<polygon class="st0" points="363.8,171.9 363.8,171.9 363.8,171.9 		"/>
		<polygon class="st0" points="355.7,167.4 355.7,167.4 355.7,167.4 		"/>
		<path class="st0" d="M364.5,157.6c-0.6,0.3-1.1,0.6-1.7,0.9C363.4,158.3,364,158,364.5,157.6z"/>
		<path class="st0" d="M361.8,159.1c-0.5,0.3-1.1,0.5-1.6,0.8C360.7,159.6,361.3,159.3,361.8,159.1z"/>
		<path class="st0" d="M350.8,163.7c-1,0.3-1.9,0.6-2.9,0.9C348.8,164.4,349.8,164.1,350.8,163.7z"/>
		<path class="st0" d="M370.3,154.2c-0.8,0.5-1.6,1-2.4,1.5C368.7,155.2,369.5,154.7,370.3,154.2z"/>
		<path class="st0" d="M367.9,155.7c-0.8,0.5-1.6,1-2.5,1.5C366.2,156.7,367,156.2,367.9,155.7z"/>
		<path class="st0" d="M359.1,160.4c-0.5,0.2-1.1,0.5-1.6,0.7C358,160.9,358.6,160.6,359.1,160.4z"/>
		<path class="st0" d="M353.6,162.7c-0.6,0.2-1.3,0.5-1.9,0.7C352.3,163.2,353,162.9,353.6,162.7z"/>
		<path class="st0" d="M356.4,161.6c-0.6,0.2-1.1,0.5-1.7,0.7C355.2,162,355.8,161.8,356.4,161.6z"/>
		<path class="st0" d="M1002.9,68.4c0.8-0.8,1.6-1.5,2.5-2.3C1004.6,66.9,1003.7,67.6,1002.9,68.4z"/>
		<path class="st0" d="M1179,47.2c0.4,0.2,0.8,0.5,1.2,0.7C1179.8,47.7,1179.4,47.5,1179,47.2z"/>
		<path class="st0" d="M1171.5,42.9c0.4,0.2,0.8,0.4,1.1,0.6C1172.3,43.4,1171.9,43.1,1171.5,42.9z"/>
		<path class="st0" d="M1175.3,45c0.4,0.2,0.8,0.5,1.2,0.7C1176.1,45.5,1175.7,45.3,1175.3,45z"/>
		<path class="st0" d="M1018.2,55.7c1.2-0.9,2.5-1.8,3.7-2.6C1020.7,54,1019.4,54.8,1018.2,55.7z"/>
		<path class="st0" d="M1186.4,52.1c0.2,0.2,0.5,0.3,0.7,0.5C1186.8,52.4,1186.6,52.2,1186.4,52.1z"/>
		<path class="st0" d="M1182.6,49.5c0.3,0.2,0.7,0.4,1,0.7C1183.3,50,1183,49.8,1182.6,49.5z"/>
		<path class="st0" d="M1121.5,108.5c-0.7-0.3-1.5-0.6-2.2-0.9C1120.1,107.9,1120.8,108.2,1121.5,108.5z"/>
		<path class="st0" d="M1014.4,58.6c0.9-0.7,1.8-1.4,2.7-2C1016.2,57.2,1015.3,57.9,1014.4,58.6z"/>
		<path class="st0" d="M369.9,176.8C369.9,176.8,369.9,176.8,369.9,176.8C369.9,176.8,369.9,176.8,369.9,176.8z"/>
		<polygon class="st0" points="1345.7,220.8 1345.7,220.8 1345.7,220.8 		"/>
		<polygon class="st0" points="1469.7,286.5 1469.7,286.5 1469.7,286.5 1469.7,286.5 1415.5,150.1 1530.7,32.7 1530.7,32.7 
			1415.5,150.1 		"/>
		<polygon class="st0" points="1333.4,135.6 1352.3,32.7 1352.3,32.7 1333.4,135.6 		"/>
		<path class="st0" d="M982.6,92.1c1.8-2.6,3.6-5,5.5-7.4C986.2,87.1,984.4,89.6,982.6,92.1z"/>
		<path class="st0" d="M1006.4,65.2c2.3-2,4.6-4,7-5.8C1011,61.3,1008.7,63.2,1006.4,65.2z"/>
		<path class="st0" d="M1119.1,107.5c-0.7-0.3-1.4-0.5-2.1-0.7C1117.7,107,1118.4,107.3,1119.1,107.5z"/>
		<path class="st0" d="M998.7,72.5c1.1-1.1,2.1-2.1,3.2-3.2C1000.9,70.4,999.8,71.5,998.7,72.5z"/>
		<path class="st0" d="M1112.2,105.5c-0.7-0.1-1.3-0.3-2-0.4C1110.9,105.2,1111.6,105.4,1112.2,105.5z"/>
		<path class="st0" d="M1065.7,321.5c1.1,0.1,2.2,0.2,3.3,0.3c0,0,0,0,0,0C1068,321.7,1066.8,321.6,1065.7,321.5
			C1065.7,321.5,1065.7,321.5,1065.7,321.5z"/>
		<path class="st0" d="M1062.2,321.2c0.4,0,0.8,0.1,1.2,0.1c0,0,0,0,0,0C1063,321.3,1062.6,321.2,1062.2,321.2
			C1062.2,321.2,1062.2,321.2,1062.2,321.2z"/>
		<path class="st0" d="M1070.6,321.9c0.9,0,1.8,0.1,2.7,0.1c0,0,0,0,0,0C1072.3,322,1071.4,321.9,1070.6,321.9
			C1070.5,321.9,1070.5,321.9,1070.6,321.9z"/>
		<polygon class="st0" points="1178.5,240.5 1178.5,240.5 1181.2,244.1 		"/>
		<path class="st0" d="M1074.6,322c1.3,0,2.6,0.1,4,0.1c0,0,0,0,0,0l0,0C1077.2,322.1,1075.9,322.1,1074.6,322
			C1074.6,322,1074.6,322,1074.6,322z"/>
		<polygon class="st0" points="955.7,213.9 955.7,213.9 955.7,213.9 		"/>
		<path class="st0" d="M1116.9,106.7c-1.5-0.5-3-0.9-4.5-1.2C1113.9,105.8,1115.4,106.3,1116.9,106.7z"/>
		<path class="st0" d="M954.9,207.6C954.9,207.6,954.9,207.6,954.9,207.6c0,0,0-0.1,0-0.1C954.9,207.5,954.9,207.5,954.9,207.6z"/>
		<path class="st0" d="M954.2,200.7c0,0.1,0,0.1,0,0.2c0,0,0,0,0,0C954.2,200.8,954.2,200.8,954.2,200.7
			C954.2,200.7,954.2,200.7,954.2,200.7z"/>
		<path class="st0" d="M1105.9,104.6c0.5,0,1,0.1,1.5,0.1c-0.6-0.1-1.2-0.1-1.8-0.1C1105.7,104.6,1105.8,104.6,1105.9,104.6z"/>
		<path class="st0" d="M1109.7,105C1109.7,105,1109.7,105,1109.7,105c-0.5-0.1-1-0.1-1.6-0.2C1108.6,104.9,1109.1,105,1109.7,105z"
			/>
		<path class="st0" d="M953.9,193.5c0,0.5,0,0.9,0.1,1.4c0,0,0,0,0,0C953.9,194.4,953.9,193.9,953.9,193.5
			C953.9,193.5,953.9,193.5,953.9,193.5z"/>
		<path class="st0" d="M1045.1,157.1c0.3-1.4,0.7-2.8,1.1-4.1c0,0,0-0.1,0-0.1C1045.8,154.3,1045.4,155.7,1045.1,157.1
			C1045.1,157.1,1045.1,157.1,1045.1,157.1z"/>
		<path class="st0" d="M1047.4,149c-0.4,1.2-0.8,2.5-1.2,3.8C1046.6,151.6,1047,150.3,1047.4,149z"/>
		<path class="st0" d="M1048.9,145.1c-0.4,1-0.7,1.9-1.1,2.9C1048.2,147,1048.5,146,1048.9,145.1z"/>
		<path class="st0" d="M1105.2,104.6c-0.7,0-1.4-0.1-2.1-0.1C1103.8,104.5,1104.5,104.5,1105.2,104.6z"/>
		<path class="st0" d="M810.1,386.7C810.1,386.7,810.1,386.7,810.1,386.7C810.1,386.7,810.1,386.7,810.1,386.7z"/>
		<path class="st0" d="M1173.4,453.5c0.6,0,1.3,0.1,1.9,0.1C1174.7,453.6,1174.1,453.6,1173.4,453.5z"/>
		<path class="st0" d="M1186.7,456.2c0.5,0.2,1.1,0.4,1.6,0.6C1187.8,456.6,1187.2,456.4,1186.7,456.2z"/>
		<path class="st0" d="M1169.6,453.4L1169.6,453.4c1,0,1.9,0,2.9,0.1C1171.6,453.4,1170.6,453.4,1169.6,453.4z"/>
		<path class="st0" d="M1181.7,454.7c0.5,0.1,1,0.2,1.5,0.4C1182.8,455,1182.3,454.9,1181.7,454.7z"/>
		<path class="st0" d="M1179.1,454.2c0.5,0.1,1,0.2,1.6,0.3C1180.2,454.4,1179.6,454.3,1179.1,454.2z"/>
		<path class="st0" d="M1184.3,455.4c0.5,0.1,1,0.3,1.5,0.5C1185.3,455.7,1184.8,455.6,1184.3,455.4z"/>
		<path class="st0" d="M1295.4,446.3c-0.8-1.9-1.7-3.8-2.6-5.6c-4.8-9.6-10.7-18.1-17.9-25.5c7.2,7.4,13.1,15.9,17.9,25.5
			C1293.7,442.5,1294.6,444.4,1295.4,446.3z"/>
		<path class="st0" d="M1176.4,453.8c0.6,0.1,1.1,0.1,1.7,0.2C1177.5,453.9,1176.9,453.9,1176.4,453.8z"/>
		<path class="st0" d="M859.5,493.4c-0.6,2.8-1.2,5.6-1.9,8.3C858.3,499,858.9,496.2,859.5,493.4z"/>
		<polygon class="st0" points="837.2,289.3 837.2,289.3 834.9,275.7 		"/>
		<polygon class="st0" points="432.7,611.1 432.7,611.1 423,663.7 		"/>
		<path class="st0" d="M862.4,462.3L862.4,462.3c0,10.9-1,21.3-3,31.1C861.5,483.6,862.4,473.2,862.4,462.3z"/>
		<path class="st0" d="M856.4,505.7c-0.8,2.7-1.7,5.3-2.6,7.9C854.7,511,855.6,508.4,856.4,505.7z"/>
		<path class="st0" d="M371.4,178.4c0.1,0.1,0.1,0.1,0.2,0.2C371.5,178.5,371.5,178.4,371.4,178.4z"/>
		<rect x="1485" y="623.8" class="st0" width="0" height="0"/>
		<polygon class="st0" points="1528.5,412.5 1521.4,380.7 1521.4,380.7 1528.5,412.5 		"/>
		<path class="st0" d="M1189,457.1c0.8,0.3,1.5,0.7,2.3,1.1C1190.6,457.8,1189.8,457.5,1189,457.1z"/>
		<polygon class="st0" points="563.6,527.9 563.6,527.9 560.5,544.9 		"/>
		<polygon class="st0" points="1696,380.7 1696,380.7 1702.9,401.8 		"/>
		<polygon class="st0" points="1761.8,576.5 1750.4,650.6 1750.4,650.6 1750.4,650.6 1761.8,576.5 1884.7,380.7 1884.7,380.7 		"/>
		<polygon class="st0" points="1460.5,474.4 1460.5,474.4 1460.5,474.4 1460.5,474.4 		"/>
		<path class="st0" d="M1196.9,461.7c0.2,0.2,0.5,0.4,0.7,0.5C1197.3,462.1,1197.1,461.9,1196.9,461.7z"/>
		<path class="st0" d="M1195.1,460.4c0.2,0.2,0.5,0.3,0.7,0.5C1195.5,460.7,1195.3,460.6,1195.1,460.4z"/>
		<path class="st0" d="M1193.2,459.3c0.2,0.1,0.4,0.3,0.6,0.4C1193.6,459.5,1193.4,459.4,1193.2,459.3z"/>
		<polygon class="st0" points="1731.7,489.7 1731.7,489.7 1731.7,489.7 		"/>
		<path class="st0" d="M1200.3,464.6c0.2,0.2,0.4,0.4,0.6,0.6C1200.7,465,1200.5,464.8,1200.3,464.6z"/>
		<path class="st0" d="M1202,466.3c0.2,0.2,0.3,0.4,0.5,0.5C1202.3,466.6,1202.2,466.5,1202,466.3z"/>
		<path class="st0" d="M1198.6,463.1c0.2,0.2,0.5,0.4,0.7,0.6C1199.1,463.5,1198.8,463.3,1198.6,463.1z"/>
		<path class="st0" d="M287.5,205.5c0.2,0.1,0.4,0.1,0.5,0.2C287.8,205.7,287.7,205.6,287.5,205.5z"/>
		<path class="st0" d="M374.4,46.3c1.3,0.8,2.7,1.6,3.9,2.4C377.1,47.9,375.7,47.1,374.4,46.3z"/>
		<path class="st0" d="M382.2,51.4c1.9,1.5,3.8,3,5.4,4.6C385.9,54.4,384.1,52.9,382.2,51.4z"/>
		<path class="st0" d="M322.9,32.9c8.4,0.4,16.1,1.4,23.3,2.9C339,34.4,331.2,33.4,322.9,32.9z"/>
		<path class="st0" d="M403.9,97.9c0,0.7-0.1,1.3-0.1,2C403.8,99.2,403.8,98.5,403.9,97.9z"/>
		<path class="st0" d="M394.4,63.6L394.4,63.6c-1.9-2.6-4.1-5.1-6.6-7.5C390.3,58.5,392.5,61,394.4,63.6z"/>
		<path class="st0" d="M404,94.4c0,0.9,0,1.8-0.1,2.7C403.9,96.2,404,95.3,404,94.4z"/>
		<path class="st0" d="M387.5,218.3c0,0.2,0,0.4,0,0.6C387.5,218.7,387.5,218.5,387.5,218.3z"/>
		<path class="st0" d="M357.3,38.8c0.8,0.2,1.5,0.5,2.3,0.8C358.8,39.3,358.1,39.1,357.3,38.8z"/>
		<path class="st0" d="M375.7,183.5c0.5,0.6,0.9,1.3,1.3,1.9C376.6,184.8,376.1,184.2,375.7,183.5z"/>
		<path class="st0" d="M374.3,181.7c0.2,0.3,0.4,0.5,0.6,0.8C374.7,182.3,374.5,182,374.3,181.7z"/>
		<path class="st0" d="M372.9,180c0.1,0.1,0.2,0.3,0.3,0.4C373.1,180.3,373,180.1,372.9,180z"/>
		<path class="st0" d="M382.6,196c0.9,2.2,1.7,4.5,2.4,6.9C384.3,200.5,383.5,198.2,382.6,196z"/>
		<path class="st0" d="M386.4,209.2c0,0.2,0.1,0.4,0.1,0.6C386.5,209.5,386.4,209.4,386.4,209.2z"/>
		<path class="st0" d="M387,213.6c0,0.2,0.1,0.5,0.1,0.7C387.1,214.1,387.1,213.8,387,213.6z"/>
		<path class="st0" d="M378.7,188.2c0.1,0.2,0.3,0.5,0.4,0.7C379,188.6,378.8,188.4,378.7,188.2z"/>
		<path class="st0" d="M285.6,204.9c0.2,0.1,0.4,0.1,0.6,0.2C285.9,205,285.7,205,285.6,204.9z"/>
		<path class="st0" d="M299.7,101.7c0.4,0.1,0.8,0.2,1.2,0.3C300.5,101.9,300.1,101.8,299.7,101.7z"/>
		<path class="st0" d="M305.8,104.4c0.5,0.4,0.9,0.7,1.4,1.2C306.8,105.1,306.3,104.7,305.8,104.4z"/>
		<path class="st0" d="M298.3,101.5c0.4,0,0.7,0.1,1.1,0.2C299.1,101.6,298.7,101.6,298.3,101.5z"/>
		<path class="st0" d="M305.7,104.3c-0.9-0.6-1.8-1.2-2.8-1.6c0.5,0.2,0.9,0.4,1.3,0.6C304.7,103.6,305.2,103.9,305.7,104.3z"/>
		<path class="st0" d="M300.9,102c0.7,0.2,1.3,0.4,2,0.7C302.3,102.4,301.6,102.2,300.9,102z"/>
		<path class="st0" d="M296.8,101.4c0.3,0,0.6,0.1,0.8,0.1C297.4,101.4,297.1,101.4,296.8,101.4z"/>
		<path class="st0" d="M290.6,141.5c-0.2,0-0.4,0-0.7,0.1C290.2,141.5,290.4,141.5,290.6,141.5z"/>
		<path class="st0" d="M292.9,141.2c-0.2,0-0.4,0.1-0.6,0.1C292.5,141.3,292.7,141.2,292.9,141.2z"/>
		<polygon points="1474.3,556.7 1460.5,474.4 1460.5,474.4 1460.5,474.4 1420,556.7 1420,556.7 		"/>
		<polygon points="769.9,208.7 824.1,208.7 810.4,126.3 		"/>
		<path d="M754.7,451.8H715l-12.3,67.4h39.7c11.1,0,20-3.8,26.6-11.5c6.6-7.7,9.8-17.8,9.8-30.5c0-8.1-2.1-14.3-6.3-18.8
			C768.3,454,762.4,451.8,754.7,451.8z"/>
		<path d="M293.1,208.5c-1.5-1.1-3.2-2-5.1-2.7c-0.2-0.1-0.4-0.1-0.5-0.2c-0.4-0.2-0.9-0.3-1.4-0.4c-0.2-0.1-0.4-0.1-0.6-0.2
			c-2.1-0.5-4.3-0.9-6.8-1c-0.8,0-1.7-0.1-2.6-0.1h-40.9l-7.8,43.2h0h40.9c8.9,0,16.3-2.4,22.1-7.3c5.8-4.8,8.7-11,8.7-18.6
			C299.2,215.8,297.2,211.6,293.1,208.5z"/>
		<path d="M307.2,105.5c-0.4-0.4-0.9-0.8-1.4-1.2c0,0-0.1-0.1-0.1-0.1c-0.5-0.3-1-0.7-1.5-0.9c-0.4-0.2-0.9-0.4-1.3-0.6c0,0,0,0,0,0
			c-0.6-0.3-1.3-0.5-2-0.7c0,0,0,0,0,0c-0.4-0.1-0.8-0.2-1.2-0.3c-0.1,0-0.2,0-0.3-0.1c-0.4-0.1-0.7-0.1-1.1-0.2
			c-0.2,0-0.5-0.1-0.7-0.1c-0.3,0-0.6-0.1-0.8-0.1c-0.6,0-1.1-0.1-1.7-0.1h-41.2l-7.4,40.4h0h41.2c0.8,0,1.5,0,2.3-0.1
			c0.2,0,0.4,0,0.7-0.1c0.5-0.1,1.1-0.1,1.6-0.2c0.2,0,0.4-0.1,0.6-0.1c0.7-0.1,1.4-0.3,2.1-0.5c1.5-0.4,2.9-1,4.3-1.7
			c1.3-0.7,2.6-1.6,3.8-2.6c0.6-0.5,1.2-1,1.7-1.6c4.5-4.6,6.7-10.4,6.7-17.4C311.5,112.3,310,108.4,307.2,105.5z"/>
		<path d="M1154.8,591.1c11.6,0,22.2-3.4,31.6-10.3c9.4-6.9,16.8-16.5,22.1-29.1c5.3-12.5,8-26.7,8-42.6c0-17-4.1-30.5-12.4-40.6
			c-0.5-0.6-1-1.2-1.5-1.7c-0.2-0.2-0.3-0.4-0.5-0.5c-0.3-0.4-0.7-0.7-1.1-1.1c-0.2-0.2-0.4-0.4-0.6-0.6c-0.3-0.3-0.7-0.6-1-0.9
			c-0.2-0.2-0.5-0.4-0.7-0.6c-0.3-0.3-0.7-0.6-1-0.8c-0.2-0.2-0.5-0.4-0.7-0.5c-0.4-0.3-0.7-0.5-1.1-0.8c-0.2-0.2-0.5-0.3-0.7-0.5
			c-0.4-0.3-0.8-0.5-1.2-0.8c-0.2-0.1-0.4-0.3-0.6-0.4c-0.6-0.4-1.3-0.7-1.9-1.1c-0.7-0.4-1.5-0.7-2.3-1.1c-0.3-0.1-0.5-0.2-0.8-0.3
			c-0.5-0.2-1-0.4-1.6-0.6c-0.3-0.1-0.6-0.2-0.9-0.3c-0.5-0.2-1-0.3-1.5-0.5c-0.3-0.1-0.7-0.2-1-0.3c-0.5-0.1-1-0.3-1.5-0.4
			c-0.4-0.1-0.7-0.2-1.1-0.2c-0.5-0.1-1-0.2-1.6-0.3c-0.4-0.1-0.7-0.1-1.1-0.2c-0.5-0.1-1.1-0.2-1.7-0.2c-0.4,0-0.7-0.1-1.1-0.1
			c-0.6-0.1-1.2-0.1-1.9-0.1c-0.3,0-0.6,0-0.9-0.1c-0.9,0-1.9-0.1-2.9-0.1h-25.3l-24.9,137.6h0H1154.8z"/>
		<path d="M1793.4,370.2l0.1-0.5l-74.5,47.4l-13-39.6l-2.4-7.3h-107.6l-0.3-0.5l-57.8,36.8l-6.2-28l-1.8-8.3h-102l-0.7-0.5
			l-120.4,76.6c-1.4-3.5-5.6-12.9-7.2-16.2c-10.3-20.8-49.1-46.5-71.4-53.8c-13.3-4.3-29.4-10-39.7-10
			c-202.1,0-807.8,14.1-807.8,14.1l-96,62.1c0,0-55.9,300-60.2,320.2h1359.7l172.8-88l-0.1-0.4h0.6l1.4-9l2-13.1l11-71.9
			l121.8-193.9l10.2-16.2H1793.4z M568.6,500.6l-5,27.3l-3.1,17l-4.9,26.8H440.1l-7.3,39.4l-9.8,52.6h-86.2l52-283h209.5l-13,71H462
			l-8.9,48.8H568.6z M862.4,462.3c0,10.9-1,21.3-3,31.1c-0.6,2.8-1.2,5.6-1.9,8.3c-0.4,1.4-0.7,2.7-1.1,4c-0.8,2.7-1.7,5.3-2.6,7.9
			c-1.9,5.1-4.2,10.1-6.7,14.9c-10.3,19.1-25.1,33.9-44.4,44.4l34.2,90.8h-97.3l-17.8-73.5h-32.3L676,663.7h-86.2l52-283h125.9
			c16.1,0,30.3,2,42.4,6l0,0c10.8,3.5,20.1,8.6,27.8,15.2C854.3,416.1,862.4,436.2,862.4,462.3L862.4,462.3z M963.8,663.7h-86.2
			l52-283h86.2L963.8,663.7z M1222.8,644.3c-24.5,12.9-52.4,19.4-83.6,19.4h-119.2l51.6-283h110.3c24.6,0,46,4.5,64.2,13.6
			c1.3,0.6,2.5,1.3,3.7,1.9c9.5,5.2,17.9,11.5,25,18.9c7.2,7.4,13.1,15.9,17.9,25.5c0.9,1.8,1.8,3.7,2.6,5.6
			c0.4,0.9,0.8,1.9,1.2,2.9c0.4,1,0.8,1.9,1.1,2.9c6,16.5,8.6,35.1,7.6,55.8c-1.5,30.9-9.5,58.2-24,81.7
			C1266.8,613.2,1247.3,631.4,1222.8,644.3z M1491.7,663.7l-6.7-40v0h-97.7l-19.7,40H1280l153.1-283h88.4v0h0l7,31.8l0,0l55.7,251.2
			H1491.7z M1761.8,576.5l-11.4,74l0,0l-2,13.1h-86.2l13-86l-57.8-175.1l-7.2-21.9h85.8v0h0l6.9,21.1l6.9,21.1l21.9,66.8v0
			l51.8-83.9l15.5-25.1h85.8v0h0L1761.8,576.5z"/>
		<path d="M1402.3,393l94.1-66.1l-0.4-0.6h0.9l-5.8-14.5l-11.6-29.2l-51.6-129.9l110.3-112.5l17.7-18H1522l0.7-0.4l-0.8,0.4h-98.4
			l-3.1,3.4l-69.9,75.9l12.3-66.8l2.3-12.5h-106.6l-0.1-0.6l-0.9,0.6h-0.1l0,0.1l-51,32.4c-9.9-9-21.2-16.8-33.9-23.1
			C1152,21.2,1130.8,16,1109.4,16c-28,0-54.2,6.4-77.9,19c-2.4,1.3-4.4,2.4-6.3,3.5c-0.9,0.5-1.8,1.1-2.7,1.6l-0.2-0.1l-121.5,77.2
			l-19.3-86.9l-1.8-8.3H776.5l-0.6,1.1l-1-1.6L540.3,170.9l24.9-136.3l2.3-12.5h-107l0-0.4l-0.7,0.4h0l0,0L403.3,58
			c-0.1-0.2-0.2-0.4-0.4-0.5c-4.5-6.2-10.4-11.9-17.6-16.7c-18.1-12.3-42.6-18.6-72.8-18.6H173.1l-0.5-0.4l-0.7,0.4h0l0,0L76.8,82.5
			c-1,22-40.7,215.3-60.5,310.4H1402.3z M1266.2,32.7h86.2v0h0l-18.9,102.9l94.7-102.9h102.5v0h0l-115.2,117.5l54.2,136.3l0,0l0,0
			l11.6,29.2h-99.9l-35.7-94.9v0l-34.2,35.1l-11.1,59.7h-86.2l22-119.9L1266.2,32.7z M974.4,105.3c1.7-3.1,3.5-6,5.4-8.9
			c0.9-1.4,1.9-2.9,2.9-4.3c1.8-2.6,3.6-5,5.5-7.4c1.2-1.6,2.5-3.1,3.8-4.7c1.1-1.3,2.2-2.5,3.3-3.8c1.1-1.2,2.3-2.5,3.5-3.7
			c1.1-1.1,2.1-2.1,3.2-3.2c0.3-0.3,0.6-0.6,1-0.9c0.8-0.8,1.6-1.5,2.5-2.3c0.3-0.3,0.7-0.6,1-0.9c2.3-2,4.6-4,7-5.8
			c0.4-0.3,0.7-0.6,1.1-0.8c0.9-0.7,1.8-1.4,2.7-2c0.4-0.3,0.7-0.5,1.1-0.8c1.2-0.9,2.5-1.8,3.7-2.6c1.4-1,2.8-1.9,4.3-2.8
			c1.4-0.9,2.9-1.8,4.4-2.7c1-0.6,1.9-1.1,2.9-1.7c1-0.5,2-1.1,2.9-1.6c8.3-4.4,17-8,25.9-10.8c14.9-4.6,30.5-6.9,47-6.9h0
			c19.8,0,39.2,4.8,58.3,14.3c0,0,0,0,0,0c1.3,0.6,2.5,1.3,3.8,2c0.4,0.2,0.8,0.4,1.1,0.6c0.9,0.5,1.7,1,2.6,1.5
			c0.4,0.2,0.8,0.5,1.2,0.7c0.8,0.5,1.6,1,2.5,1.5c0.4,0.2,0.8,0.5,1.2,0.7c0.8,0.5,1.7,1.1,2.5,1.6c0.3,0.2,0.7,0.4,1,0.7
			c0.9,0.6,1.8,1.2,2.7,1.9c0.2,0.2,0.5,0.3,0.7,0.5c10.6,7.6,19.7,16.4,27.5,26.5l-56.1,64.2c-2.7-4.7-5.8-9.1-9.1-13.1
			c-4.8-5.8-10.1-10.8-16-15c-3.9-2.8-7.9-5-11.8-6.7c-0.7-0.3-1.5-0.6-2.2-0.9c-0.1,0-0.1,0-0.2-0.1c-0.7-0.3-1.4-0.5-2.1-0.7
			c-0.1,0-0.1,0-0.2-0.1c-1.5-0.5-3-0.9-4.5-1.2c0,0-0.1,0-0.1,0c-0.7-0.1-1.3-0.3-2-0.4c-0.2,0-0.3,0-0.5-0.1c0,0,0,0-0.1,0
			c-0.5-0.1-1.1-0.2-1.6-0.2c-0.2,0-0.5-0.1-0.7-0.1c-0.5-0.1-1-0.1-1.5-0.1c-0.1,0-0.2,0-0.3,0c-0.1,0-0.2,0-0.4,0
			c-0.7,0-1.4-0.1-2.1-0.1c0,0,0,0,0,0c-11.1,0-21.3,3.2-30.5,9.7c-2.3,1.6-4.5,3.4-6.5,5.3c-2.1,1.9-4,4-5.8,6.2
			c-3.7,4.5-6.8,9.6-9.6,15.3c-0.6,1.3-1.2,2.7-1.8,4c-0.4,1-0.7,1.9-1.1,2.9c-0.1,0.4-0.3,0.7-0.4,1.1c-0.4,1.2-0.8,2.5-1.2,3.8
			c0,0,0,0.1,0,0.1c0,0,0,0.1,0,0.1c-0.4,1.4-0.8,2.7-1.1,4.1c0,0,0,0,0,0c-1.7,7-2.5,14.3-2.5,22.1c0,17.8,4.5,32.4,13.4,43.8
			c8.9,11.4,20.4,17.2,34.5,17.2c9.4,0,19.8-3,31.2-9.1c11.4-6.1,21.8-14.1,31.2-24l25.6,33.5l2.7,3.6l15.8,20.7
			c-16.1,17.5-34.9,31.4-56.3,41.8c-21.4,10.4-42.2,15.5-62.2,15.5c0,0,0,0,0,0c-1.3,0-2.7,0-4-0.1c0,0,0,0,0,0c-0.4,0-0.9,0-1.3,0
			c0,0,0,0,0,0c-0.9,0-1.8-0.1-2.7-0.1c0,0,0,0,0,0c-0.5,0-1,0-1.5-0.1c0,0,0,0,0,0c-1.1-0.1-2.2-0.2-3.3-0.3l0,0
			c-0.8-0.1-1.5-0.1-2.3-0.2c0,0,0,0,0,0c-0.4,0-0.8-0.1-1.2-0.1c0,0,0,0,0,0c-17.9-2-34.2-7.5-48.9-16.4
			c-18.9-11.6-33.6-27.6-44-48c-6.7-13.1-11.2-27.4-13.6-42.8v0c-0.3-2.1-0.6-4.2-0.9-6.3c0,0,0,0,0,0c0,0,0-0.1,0-0.1
			c-0.2-2.2-0.5-4.3-0.6-6.5c0,0,0,0,0,0c0-0.1,0-0.1,0-0.2c0,0,0,0,0,0c-0.1-1.9-0.2-3.9-0.3-5.8c0,0,0,0,0,0c0-0.5,0-0.9-0.1-1.4
			c0,0,0,0,0,0c0-0.8-0.1-1.7-0.1-2.5c0-1.2,0-2.4,0-3.7C953.7,157.1,960.6,129.8,974.4,105.3z M782.4,33.5l0.5-0.9h88.4l20.1,90.6
			l42.7,192.3h-92.5l-4.4-26.3l-2.3-13.6h-97.7l-19.7,40h-87.7L782.4,33.5z M462.8,64.1l5.8-31.5h86.2l-26.7,145.9l-10.8,59.1h108.5
			l-14.5,77.9H416.6L462.8,64.1z M180.7,32.7h131.9c3.5,0,7,0.1,10.3,0.3c8.4,0.4,16.1,1.4,23.3,2.9c1.4,0.3,2.9,0.6,4.2,1
			c2.3,0.6,4.6,1.3,6.8,2c0.8,0.2,1.5,0.5,2.3,0.8c5.4,1.9,10.3,4.1,14.9,6.7c1.3,0.8,2.7,1.6,3.9,2.4c0.4,0.2,0.7,0.5,1.1,0.7
			c0.9,0.6,1.9,1.3,2.7,2c1.9,1.5,3.8,3,5.4,4.6c0.1,0.1,0.1,0.1,0.2,0.2c2.5,2.4,4.7,4.9,6.6,7.5h0c6.4,8.8,9.6,19,9.6,30.8
			c0,0.9,0,1.8-0.1,2.7c0,0.3,0,0.5,0,0.8c0,0.7-0.1,1.3-0.1,2c0,0.3,0,0.5-0.1,0.8c-0.1,0.9-0.2,1.7-0.3,2.6
			c-0.1,0.9-0.2,1.7-0.4,2.6c0,0.3-0.1,0.5-0.1,0.8c-0.1,0.6-0.2,1.3-0.4,1.9c-0.1,0.2-0.1,0.5-0.2,0.7c-0.2,0.8-0.4,1.7-0.6,2.5
			c-0.2,0.8-0.5,1.7-0.7,2.5c-0.1,0.2-0.2,0.5-0.2,0.7c-0.2,0.6-0.4,1.2-0.6,1.8c-0.1,0.2-0.2,0.5-0.3,0.7c-0.3,0.8-0.6,1.6-0.9,2.4
			c-0.3,0.8-0.7,1.6-1,2.4c-0.1,0.2-0.2,0.5-0.3,0.7c-0.3,0.6-0.6,1.2-0.9,1.7c-0.1,0.2-0.2,0.5-0.4,0.7c-0.4,0.8-0.8,1.6-1.3,2.3
			c-1,1.7-2,3.4-3.2,5.1c-1.1,1.7-2.4,3.3-3.7,4.9c-1.3,1.6-2.6,3.2-4,4.7c-0.7,0.7-1.3,1.4-2,2.1c-0.2,0.2-0.5,0.4-0.7,0.7
			c-0.5,0.4-0.9,0.9-1.4,1.3c-0.3,0.3-0.5,0.5-0.8,0.7c-0.4,0.4-0.9,0.8-1.3,1.2c-0.3,0.3-0.6,0.5-0.9,0.7c-0.4,0.4-0.9,0.7-1.3,1.1
			c-0.3,0.2-0.6,0.5-0.9,0.7c-0.5,0.4-0.9,0.7-1.4,1.1c-0.3,0.2-0.6,0.4-0.9,0.7c-0.5,0.4-1.1,0.7-1.6,1.1c-0.3,0.2-0.5,0.4-0.8,0.5
			c-0.8,0.5-1.6,1-2.4,1.5c-0.8,0.5-1.6,1-2.5,1.5c-0.3,0.2-0.6,0.3-0.8,0.5c-0.6,0.3-1.1,0.6-1.7,0.9c-0.3,0.2-0.7,0.3-1,0.5
			c-0.5,0.3-1.1,0.5-1.6,0.8c-0.4,0.2-0.7,0.3-1.1,0.5c-0.5,0.2-1.1,0.5-1.6,0.7c-0.4,0.2-0.7,0.3-1.1,0.5c-0.6,0.2-1.1,0.5-1.7,0.7
			c-0.4,0.1-0.7,0.3-1.1,0.4c-0.6,0.2-1.3,0.5-1.9,0.7c-0.3,0.1-0.6,0.2-0.9,0.3c-1,0.3-1.9,0.6-2.9,0.9c0.9,0.2,1.8,0.5,2.7,0.8
			c0.1,0,0.1,0,0.2,0.1c0.8,0.3,1.7,0.6,2.5,0.9l0,0c0,0,0,0,0,0c0.9,0.3,1.7,0.7,2.5,1c0,0,0,0,0,0c0,0,0,0,0,0
			c0.6,0.3,1.3,0.6,1.9,0.9c0,0,0,0,0,0c0,0,0,0,0,0c0.7,0.3,1.3,0.7,1.9,1c0,0,0,0,0,0c0,0,0,0,0,0c0.7,0.4,1.4,0.8,2.1,1.2
			c0,0,0,0,0,0c0.7,0.4,1.4,0.9,2.1,1.3l0,0c0,0,0,0,0,0c0.4,0.2,0.7,0.5,1,0.7l0,0c0,0,0,0,0,0c1.7,1.3,3.4,2.7,5,4.2c0,0,0,0,0,0
			c0.5,0.5,1,1,1.5,1.5c0.1,0.1,0.1,0.1,0.2,0.2c0.4,0.5,0.9,1,1.3,1.5c0.1,0.1,0.2,0.3,0.3,0.4c0.4,0.4,0.7,0.9,1.1,1.3
			c0.2,0.3,0.4,0.5,0.6,0.8c0.3,0.3,0.5,0.7,0.8,1c0.5,0.6,0.9,1.3,1.3,1.9c0.6,0.9,1.1,1.8,1.7,2.7c0.1,0.2,0.3,0.5,0.4,0.7
			c0.5,0.9,1,1.8,1.5,2.8c0.4,0.7,0.7,1.4,1,2.2c0.3,0.7,0.6,1.5,1,2.2c0.9,2.2,1.7,4.5,2.4,6.9c0.2,0.8,0.4,1.6,0.6,2.4
			c0.3,1.3,0.6,2.6,0.8,3.9c0,0.2,0.1,0.4,0.1,0.6c0.2,1.3,0.4,2.5,0.6,3.8c0,0.2,0.1,0.5,0.1,0.7c0.1,1.3,0.3,2.6,0.3,4
			c0,0.2,0,0.4,0,0.6c0.1,1.4,0.1,2.8,0.1,4.3c0,18.3-5.1,34.5-15.4,48.4c-10.3,14-24.6,24.8-42.9,32.5
			c-18.3,7.7-39.1,11.5-62.4,11.5H128.7L180.7,32.7z"/>
	</g>
	<path class="st1" d="M403.9,97.9c0-0.3,0-0.5,0-0.8c0-0.9,0.1-1.8,0.1-2.7c0-11.8-3.2-22-9.6-30.8c-1.9-2.6-4.1-5.1-6.6-7.5
		c-0.1-0.1-0.1-0.1-0.2-0.2c-1.7-1.6-3.5-3.1-5.4-4.6c-0.9-0.7-1.8-1.3-2.7-2c-0.4-0.2-0.7-0.5-1.1-0.7c-1.3-0.8-2.6-1.6-3.9-2.4
		c-4.6-2.6-9.5-4.9-14.9-6.7c-0.7-0.3-1.5-0.5-2.3-0.8c-2.2-0.7-4.5-1.4-6.8-2c-1.4-0.3-2.8-0.7-4.2-1c-7.2-1.5-15-2.5-23.3-2.9
		c-3.3-0.2-6.8-0.3-10.3-0.3h-127h0h-4.8h0l-52,283h138.2c23.3,0,44.1-3.8,62.4-11.5c18.3-7.7,32.6-18.5,42.9-32.5
		c10.3-14,15.4-30.1,15.4-48.4c0-1.5,0-2.9-0.1-4.3c0-0.2,0-0.4,0-0.6c-0.1-1.3-0.2-2.7-0.3-4c0-0.2-0.1-0.5-0.1-0.7
		c-0.2-1.3-0.3-2.6-0.6-3.8c0-0.2-0.1-0.4-0.1-0.6c-0.2-1.3-0.5-2.6-0.8-3.9c-0.2-0.8-0.4-1.6-0.6-2.4c-0.7-2.4-1.4-4.6-2.4-6.9
		c-0.3-0.7-0.6-1.5-1-2.2c-0.3-0.7-0.7-1.4-1-2.2c-0.5-0.9-1-1.9-1.5-2.8c-0.1-0.2-0.3-0.5-0.4-0.7c-0.5-0.9-1.1-1.8-1.7-2.7
		c-0.4-0.7-0.9-1.3-1.3-1.9c-0.2-0.3-0.5-0.7-0.8-1c-0.2-0.3-0.4-0.5-0.6-0.8c-0.4-0.5-0.7-0.9-1.1-1.3c-0.1-0.1-0.2-0.3-0.3-0.4
		c-0.4-0.5-0.9-1-1.3-1.5c-0.1-0.1-0.1-0.1-0.2-0.2c-0.5-0.5-1-1-1.5-1.5c0,0,0,0,0,0c-1.6-1.5-3.2-2.9-5-4.2c0,0,0,0,0,0
		c-0.3-0.3-0.7-0.5-1-0.7c0,0,0,0,0,0c-0.7-0.5-1.4-0.9-2.1-1.3c0,0,0,0,0,0c-0.7-0.4-1.4-0.8-2.1-1.2c0,0,0,0,0,0
		c-0.6-0.3-1.3-0.7-1.9-1c0,0,0,0,0,0c-0.6-0.3-1.3-0.6-1.9-0.9c0,0,0,0,0,0c-0.8-0.4-1.7-0.7-2.5-1c0,0,0,0,0,0
		c-0.8-0.3-1.7-0.6-2.5-0.9c-0.1,0-0.1,0-0.2-0.1c-0.9-0.3-1.8-0.5-2.7-0.8c1-0.3,1.9-0.6,2.9-0.9c0.3-0.1,0.6-0.2,0.9-0.3
		c0.6-0.2,1.3-0.5,1.9-0.7c0.4-0.1,0.7-0.3,1.1-0.4c0.6-0.2,1.1-0.5,1.7-0.7c0.4-0.2,0.7-0.3,1.1-0.5c0.5-0.2,1.1-0.5,1.6-0.7
		c0.4-0.2,0.7-0.3,1.1-0.5c0.5-0.3,1.1-0.5,1.6-0.8c0.3-0.2,0.7-0.3,1-0.5c0.6-0.3,1.2-0.6,1.7-0.9c0.3-0.2,0.6-0.3,0.8-0.5
		c0.8-0.5,1.7-1,2.5-1.5c0.8-0.5,1.6-1,2.4-1.5c0.3-0.2,0.5-0.4,0.8-0.5c0.5-0.4,1.1-0.7,1.6-1.1c0.3-0.2,0.6-0.4,0.9-0.7
		c0.5-0.4,0.9-0.7,1.4-1.1c0.3-0.2,0.6-0.5,0.9-0.7c0.5-0.4,0.9-0.7,1.3-1.1c0.3-0.2,0.6-0.5,0.9-0.7c0.4-0.4,0.9-0.8,1.3-1.2
		c0.3-0.2,0.5-0.5,0.8-0.7c0.5-0.4,0.9-0.9,1.4-1.3c0.2-0.2,0.5-0.4,0.7-0.7c0.7-0.7,1.4-1.4,2-2.1c1.4-1.5,2.7-3,4-4.7
		c1.3-1.6,2.5-3.3,3.7-4.9c1.1-1.7,2.2-3.3,3.2-5.1c0.4-0.8,0.9-1.5,1.3-2.3c0.1-0.2,0.2-0.5,0.4-0.7c0.3-0.6,0.6-1.2,0.9-1.7
		c0.1-0.2,0.2-0.5,0.3-0.7c0.4-0.8,0.7-1.6,1-2.4c0.3-0.8,0.6-1.6,0.9-2.4c0.1-0.2,0.2-0.5,0.3-0.7c0.2-0.6,0.4-1.2,0.6-1.8
		c0.1-0.2,0.2-0.5,0.2-0.7c0.3-0.8,0.5-1.6,0.7-2.5c0.2-0.8,0.4-1.7,0.6-2.5c0.1-0.2,0.1-0.5,0.2-0.7c0.1-0.6,0.3-1.3,0.4-1.9
		c0-0.3,0.1-0.5,0.1-0.8c0.1-0.9,0.3-1.7,0.4-2.6c0.1-0.9,0.2-1.7,0.3-2.6c0-0.3,0-0.5,0.1-0.8C403.8,99.2,403.8,98.5,403.9,97.9z
		 M290.5,239.8c-5.8,4.8-13.2,7.3-22.1,7.3h-40.9h0l7.8-43.2h40.9c0.9,0,1.8,0,2.6,0.1c2.5,0.1,4.7,0.5,6.8,1
		c0.2,0.1,0.4,0.1,0.6,0.2c0.5,0.1,0.9,0.3,1.4,0.4c0.2,0.1,0.4,0.1,0.5,0.2c1.9,0.7,3.6,1.6,5.1,2.7c4.1,3.1,6.1,7.3,6.1,12.7
		C299.2,228.7,296.3,234.9,290.5,239.8z M304.8,134.8c-0.6,0.6-1.1,1.1-1.7,1.6c-1.2,1-2.5,1.9-3.8,2.6c-1.3,0.7-2.8,1.3-4.3,1.7
		c-0.7,0.2-1.4,0.3-2.1,0.5c-0.2,0-0.4,0.1-0.6,0.1c-0.5,0.1-1.1,0.2-1.6,0.2c-0.2,0-0.4,0-0.7,0.1c-0.7,0.1-1.5,0.1-2.3,0.1h-41.2
		h0l7.4-40.4h41.2c0.6,0,1.1,0,1.7,0.1c0.3,0,0.6,0.1,0.8,0.1c0.2,0,0.5,0,0.7,0.1c0.4,0,0.7,0.1,1.1,0.2c0.1,0,0.2,0,0.3,0.1
		c0.4,0.1,0.8,0.2,1.2,0.3c0,0,0,0,0,0c0.7,0.2,1.3,0.4,2,0.7c0,0,0,0,0,0c1,0.4,2,1,2.8,1.6c0,0,0.1,0.1,0.1,0.1
		c0.5,0.4,0.9,0.7,1.4,1.2c2.8,2.8,4.3,6.8,4.3,11.9C311.5,124.4,309.2,130.2,304.8,134.8z"/>
	<polygon class="st1" points="1761.8,576.5 1884.7,380.7 1884.7,380.7 1798.9,380.7 1783.4,405.9 1731.7,489.7 1731.7,489.7 
		1731.7,489.7 1709.8,422.9 1702.9,401.8 1696,380.7 1696,380.7 1610.2,380.7 1617.4,402.6 1675.2,577.7 1662.2,663.7 1662.2,663.7 
		1748.4,663.7 1748.4,663.7 1750.4,650.6 1750.4,650.6 	"/>
	<polygon class="st1" points="625.7,237.7 517.3,237.7 528.1,178.6 554.8,32.7 468.6,32.7 462.8,64.1 416.6,315.6 611.2,315.6 	"/>
	<path class="st1" d="M1528.5,412.5l-7-31.8v0h-77.9H1433l-153.1,283h0h87.7l0,0l19.7-40h97.7l0,0v0l6.7,40h0h92.5l0,0L1528.5,412.5
		L1528.5,412.5z M1460.5,474.4L1460.5,474.4L1460.5,474.4l13.7,82.3H1420h0L1460.5,474.4z"/>
	<polygon class="st1" points="877.7,663.7 963.8,663.7 1015.9,380.7 929.7,380.7 	"/>
	<path class="st1" d="M1305.2,507.9c1-20.7-1.5-39.3-7.6-55.8c-0.4-1-0.7-1.9-1.1-2.9c-0.4-1-0.8-1.9-1.2-2.9
		c-0.8-1.9-1.7-3.8-2.6-5.6c-4.8-9.6-10.7-18.1-17.9-25.5c-7.2-7.4-15.5-13.7-25-18.9c-1.2-0.7-2.5-1.3-3.7-1.9
		c-18.3-9.1-39.7-13.6-64.2-13.6h-110.3l-51.6,283h0h119.2l0,0c31.2,0,59.1-6.5,83.6-19.4c24.5-12.9,44-31.1,58.5-54.7
		C1295.8,566.1,1303.8,538.9,1305.2,507.9z M1144.4,453.4h25.3l0,0c1,0,1.9,0,2.9,0.1c0.3,0,0.6,0,0.9,0.1c0.6,0,1.3,0.1,1.9,0.1
		c0.4,0,0.7,0.1,1.1,0.1c0.6,0.1,1.1,0.1,1.7,0.2c0.4,0.1,0.7,0.1,1.1,0.2c0.5,0.1,1,0.2,1.6,0.3c0.4,0.1,0.7,0.2,1.1,0.2
		c0.5,0.1,1,0.2,1.5,0.4c0.3,0.1,0.7,0.2,1,0.3c0.5,0.1,1,0.3,1.5,0.5c0.3,0.1,0.6,0.2,0.9,0.3c0.5,0.2,1.1,0.4,1.6,0.6
		c0.3,0.1,0.5,0.2,0.8,0.3c0.8,0.3,1.5,0.7,2.3,1.1c0.7,0.3,1.3,0.7,1.9,1.1c0.2,0.1,0.4,0.3,0.6,0.4c0.4,0.3,0.8,0.5,1.2,0.8
		c0.2,0.2,0.5,0.3,0.7,0.5c0.4,0.3,0.7,0.5,1.1,0.8c0.2,0.2,0.5,0.4,0.7,0.5c0.3,0.3,0.7,0.6,1,0.8c0.2,0.2,0.5,0.4,0.7,0.6
		c0.3,0.3,0.7,0.6,1,0.9c0.2,0.2,0.4,0.4,0.6,0.6c0.4,0.4,0.7,0.7,1.1,1.1c0.2,0.2,0.3,0.4,0.5,0.5c0.5,0.6,1,1.1,1.5,1.7
		c8.3,10.1,12.4,23.6,12.4,40.6c0,15.9-2.7,30.1-8,42.6c-5.3,12.5-12.7,22.2-22.1,29.1c-9.4,6.9-19.9,10.3-31.6,10.3h-35.3h0
		L1144.4,453.4z"/>
	<path class="st1" d="M837.9,401.9c-7.7-6.6-17-11.7-27.8-15.2c0,0,0,0,0,0c-12.2-4-26.3-6-42.4-6H641.8l-52,283H676l13.4-73.5h32.3
		l17.8,73.5h97.3l-34.2-90.8c19.3-10.5,34.1-25.3,44.4-44.4c2.6-4.8,4.8-9.7,6.7-14.9c1-2.6,1.8-5.2,2.6-7.9c0.4-1.3,0.8-2.7,1.1-4
		c0.7-2.7,1.4-5.5,1.9-8.3c2-9.8,3-20.2,3-31.1v0C862.4,436.2,854.3,416.1,837.9,401.9z M769,507.7c-6.6,7.7-15.4,11.5-26.6,11.5
		h-39.7l12.3-67.4h39.7c7.7,0,13.6,2.2,17.8,6.7c4.2,4.4,6.3,10.7,6.3,18.8C778.9,489.9,775.6,500,769,507.7z"/>
	<path class="st1" d="M953.9,193.5c0,0.5,0,0.9,0.1,1.4c0.1,2,0.2,3.9,0.3,5.8c0,0.1,0,0.1,0,0.2c0.2,2.2,0.4,4.4,0.6,6.5
		c0,0,0,0.1,0,0.1c0.2,2.1,0.5,4.2,0.9,6.3c0,0,0,0,0,0c2.4,15.4,6.9,29.6,13.6,42.8c10.4,20.5,25.1,36.5,44,48
		c14.6,8.9,30.9,14.4,48.9,16.4c0.4,0,0.8,0.1,1.2,0.1c0.8,0.1,1.5,0.2,2.3,0.2c1.1,0.1,2.2,0.2,3.3,0.3c0.5,0,1,0.1,1.5,0.1
		c0.9,0,1.8,0.1,2.7,0.1c0.4,0,0.9,0,1.3,0c1.3,0,2.7,0.1,4,0.1l0,0c20.1,0,40.8-5.2,62.2-15.5c21.4-10.4,40.2-24.3,56.3-41.8
		l-15.8-20.7l-2.7-3.6l-25.6-33.5c-9.4,10-19.8,18-31.2,24c-11.4,6.1-21.8,9.1-31.2,9.1c-14.1,0-25.6-5.7-34.5-17.2
		c-8.9-11.4-13.4-26-13.4-43.8c0-7.8,0.9-15.1,2.5-22.1c0.3-1.4,0.7-2.8,1.1-4.2c0,0,0-0.1,0-0.1c0.4-1.3,0.8-2.5,1.2-3.8
		c0.1-0.4,0.3-0.7,0.4-1.1c0.4-1,0.7-1.9,1.1-2.9c0.6-1.4,1.1-2.7,1.8-4c2.7-5.7,5.9-10.8,9.6-15.3c1.8-2.2,3.8-4.3,5.8-6.2
		c2.1-1.9,4.2-3.7,6.5-5.3c9.2-6.5,19.3-9.7,30.5-9.7c0,0,0,0,0,0c0.7,0,1.4,0,2.1,0.1c0.1,0,0.2,0,0.4,0c0.6,0,1.2,0.1,1.8,0.1
		c0.2,0,0.5,0,0.7,0.1c0.6,0.1,1.1,0.1,1.7,0.2c0.2,0,0.3,0,0.5,0.1c0.7,0.1,1.4,0.2,2,0.4c0,0,0.1,0,0.1,0c1.5,0.3,3,0.7,4.5,1.2
		c0.1,0,0.1,0,0.2,0.1c0.7,0.2,1.4,0.5,2.1,0.7c0.1,0,0.1,0,0.2,0.1c0.7,0.3,1.5,0.6,2.2,0.9c3.9,1.7,7.9,3.9,11.8,6.7
		c5.9,4.2,11.2,9.2,16,15c3.3,4,6.3,8.4,9.1,13.1l56.1-64.2c-7.7-10.1-16.9-19-27.5-26.5c-0.2-0.2-0.5-0.3-0.7-0.5
		c-0.9-0.6-1.8-1.2-2.7-1.9c-0.3-0.2-0.7-0.5-1-0.7c-0.8-0.5-1.6-1.1-2.5-1.6c-0.4-0.2-0.8-0.5-1.2-0.7c-0.8-0.5-1.6-1-2.5-1.5
		c-0.4-0.2-0.8-0.5-1.2-0.7c-0.9-0.5-1.7-1-2.6-1.5c-0.4-0.2-0.8-0.4-1.1-0.6c-1.3-0.7-2.5-1.3-3.8-2c0,0,0,0,0,0
		c-19.1-9.5-38.5-14.3-58.3-14.3l0,0c-16.5,0-32.2,2.3-47,6.9c-8.9,2.8-17.5,6.4-25.9,10.8c-1,0.5-2,1.1-2.9,1.6
		c-1,0.5-1.9,1.1-2.9,1.7c-1.5,0.9-3,1.8-4.4,2.7c-1.4,0.9-2.9,1.9-4.3,2.8c-1.3,0.9-2.5,1.7-3.7,2.6c-0.4,0.3-0.7,0.5-1.1,0.8
		c-0.9,0.7-1.8,1.3-2.7,2c-0.4,0.3-0.7,0.6-1.1,0.8c-2.4,1.9-4.7,3.8-7,5.8c-0.3,0.3-0.7,0.6-1,0.9c-0.8,0.8-1.6,1.5-2.5,2.3
		c-0.3,0.3-0.7,0.6-1,0.9c-1.1,1-2.2,2.1-3.2,3.2c-1.2,1.2-2.3,2.4-3.5,3.7c-1.1,1.2-2.2,2.5-3.3,3.8c-1.3,1.5-2.6,3.1-3.8,4.7
		c-1.9,2.4-3.7,4.9-5.5,7.4c-1,1.4-1.9,2.8-2.9,4.3c-1.9,2.9-3.7,5.9-5.4,8.9c-13.7,24.5-20.6,51.8-20.6,81.9c0,1.2,0,2.5,0,3.7
		C953.8,191.8,953.8,192.6,953.9,193.5z"/>
	<path class="st1" d="M871.3,32.7h-88.4l-0.5,0.9L629.8,315.6h0h87.7l19.7-40h97.7l2.3,13.6l4.4,26.3h92.5l-42.7-192.3L871.3,32.7z
		 M769.9,208.7l40.5-82.3l13.7,82.3H769.9z"/>
	<polygon class="st1" points="1214.1,315.6 1300.3,315.6 1300.3,315.6 1311.5,255.9 1345.7,220.8 1345.7,220.8 1345.7,220.8 
		1381.3,315.6 1381.3,315.6 1481.2,315.6 1481.2,315.6 1469.7,286.5 1469.7,286.5 1415.5,150.1 1530.7,32.7 1530.7,32.7 
		1428.1,32.7 1333.4,135.6 1333.4,135.6 1352.3,32.7 1352.3,32.7 1266.2,32.7 1236.2,195.7 1214.1,315.6 	"/>
	<polygon class="st1" points="585.3,451.8 598.3,380.7 388.8,380.7 336.8,663.7 350,663.7 423,663.7 432.7,611.1 440.1,571.7 
		494.8,571.7 555.6,571.7 560.5,544.9 563.6,527.9 568.6,500.6 453.1,500.6 462,451.8 	"/>
	<polygon points="1402.4,411.9 1404.9,375.4 1290,371.5 1246.9,379.3 1256.7,394 1289.2,425 1305.4,454.9 1387.1,419.3 	"/>
</g>
</svg>
