<?xml version="1.0" encoding="utf-8"?>
<!-- Generator: Adobe Illustrator 22.1.0, SVG Export Plug-In . SVG Version: 6.00 Build 0)  -->
<svg version="1.1" id="Layer_1" xmlns="http://www.w3.org/2000/svg" xmlns:xlink="http://www.w3.org/1999/xlink" x="0px" y="0px"
	 viewBox="0 0 2061.2 742" style="enable-background:new 0 0 2061.2 742;" xml:space="preserve">
<style type="text/css">
	.st0{fill:#FFFFFF;}
</style>
<ellipse cx="369.3" cy="222.4" rx="229.3" ry="212.9"/>
<polygon points="1533.4,385.5 1699,317.4 1615.7,219.4 1675.9,82.2 1470.1,17.6 1404.4,69.4 1413.7,22.7 1165.4,17.6 1072.5,98.7 
	1020.5,22.7 848,17.6 795.9,58.8 722.9,17.6 632.5,82.2 611.3,22.7 509.5,17.6 458.4,41.2 287.3,33.6 160.8,142.8 252.9,370.3 "/>
<polygon points="1942.9,362.6 1855.4,400.2 1838.9,364.6 1745.1,363.3 1671.8,402.2 1663.5,364.6 1572.6,362.2 1438.6,436.3 
	1401.9,465.2 1386.8,378.2 1450.8,373.7 170.2,358.5 72.2,433 16,731.3 1788.1,731.3 1898.8,640.5 1905,561.3 2028.6,364.6 "/>
<path class="st0" d="M439.7,31.1c21.1,9.8,38.5,22.7,51.9,38.9l-62.2,65.5c-7.4-11.8-16.7-21.4-27.8-28.6
	C390.5,99.6,379.3,96,368,96c-12.4,0-23.6,3.3-33.8,9.9c-10.2,6.6-18.3,15.7-24.3,27.4s-9.1,24.7-9.1,38.9c0,18.1,4.9,33,14.8,44.7
	s22.7,17.5,38.3,17.5c10.4,0,22-3.1,34.6-9.3s24.2-14.4,34.6-24.5l49,58.9c-17.9,17.9-38.7,32.1-62.4,42.6
	c-23.8,10.6-46.8,15.9-69,15.9c-27.2,0-51.3-5.9-72.3-17.7c-21-11.8-37.3-28.2-48.8-49c-11.5-20.9-17.3-44.5-17.3-70.9
	c0-30.8,7.6-58.6,22.9-83.6c15.2-25,36.1-44.6,62.4-58.9C314,23.6,343.1,16.5,375,16.5C397,16.5,418.5,21.4,439.7,31.1z"/>
<path d="M340.8,324c-28.1,0-53.4-6.2-75.2-18.5c-21.9-12.3-39.1-29.6-51.1-51.3s-18-46.5-18-73.7c0-31.7,8-60.9,23.7-86.7
	s37.5-46.3,64.6-61C312,18,342.3,10.6,375,10.6c22.7,0,45.3,5.1,67.2,15.2l0,0c21.9,10.1,40,23.7,54,40.5l3.4,4l-71.1,74.8l-4-6.4
	c-6.9-11-15.7-20.1-26-26.8c-10.1-6.6-20.3-10-30.3-10c-11.1,0-21.4,3-30.6,8.9c-9.3,6-16.7,14.5-22.3,25.2
	c-5.6,10.8-8.4,23-8.4,36.2c0,16.6,4.5,30.4,13.4,40.9c8.8,10.4,19.8,15.4,33.8,15.4c9.5,0,20.3-2.9,32-8.7
	c12-5.9,23.1-13.8,33.1-23.4l4.6-4.5l56.6,68l-3.8,3.8c-18.3,18.3-39.9,33-64.2,43.9C387.8,318.5,363.8,324,340.8,324z M375,22.4
	c-30.7,0-59.2,7-84.5,20.7s-45.6,32.8-60.2,56.8c-14.6,23.9-22,51-22,80.6c0,25.2,5.6,48.1,16.6,68c10.9,19.8,26.6,35.5,46.5,46.7
	c20,11.3,43.4,17,69.4,17c21.3,0,43.7-5.2,66.6-15.4c21.3-9.5,40.4-22.1,56.8-37.7l-41.5-49.9c-9.6,8.6-20.2,15.7-31.5,21.2
	c-13.4,6.5-25.9,9.9-37.2,9.9c-17.4,0-31.8-6.6-42.8-19.6c-10.8-12.7-16.2-29-16.2-48.5c0-15.2,3.3-29.2,9.7-41.6
	c6.5-12.5,15.3-22.5,26.3-29.6c11.1-7.2,23.5-10.8,37-10.8c12.4,0,24.8,4,36.8,11.9c9.8,6.4,18.3,14.5,25.3,24.2L483.6,70
	c-12.3-13.6-27.9-24.9-46.4-33.4l0,0C416.9,27.1,396,22.4,375,22.4z"/>
<path class="st0" d="M820.6,22.7L684.2,222.5l-14.8,89h-95.6l14.4-87.8l-72.1-201h95.2l39.6,111.2l74.6-111.2
	C725.5,22.7,820.6,22.7,820.6,22.7z"/>
<path d="M674.4,317.4H566.8l15.3-93.1L507.7,16.8h107.7l37,104.1l69.8-104.1h109.5l-141.9,208L674.4,317.4z M580.8,305.6h83.6
	l14.2-85.3L809.4,28.6h-80.8L649.2,147L607.1,28.6h-82.6l69.8,194.6L580.8,305.6z"/>
<path class="st0" d="M1069.3,178.6c7.8,10.9,11.7,23.7,11.7,38.5c0,18.7-5.7,35.2-17.1,49.4c-11.4,14.3-27.3,25.3-47.6,33.2
	c-20.3,7.8-43.4,11.7-69.2,11.7H793.9l57.7-288.8h146.3c31.3,0,56,5.7,74.2,17.1c18.1,11.4,27.2,26.7,27.2,45.9
	c0,16.2-5.8,30.9-17.3,44.1c-11.5,13.2-26.5,22.4-44.9,27.6C1050.7,160.7,1061.5,167.8,1069.3,178.6z M973.3,234
	c6.5-4.9,9.7-11.3,9.7-19c0-5.5-2.3-9.8-6.8-13s-10.8-4.7-18.7-4.7h-45.3l-8.7,44.1h45.3C958.7,241.4,966.9,239,973.3,234z
	 M989.2,126.9c4.9-4.7,7.4-10.6,7.4-17.7c0-5.2-1.6-9.3-4.7-12.2c-3.2-2.9-7.6-4.3-13.4-4.3h-45.7l-8.2,41.2h45.7
	C977.9,133.9,984.2,131.6,989.2,126.9z"/>
<path d="M947.2,317.4H786.7l60-300.6h151.1c32.3,0,58.3,6.1,77.3,18c19.9,12.5,30,29.6,30,50.9c0,17.6-6.3,33.7-18.8,48
	c-8.9,10.1-19.7,18.1-32.4,23.8c8,4.3,14.7,10.2,20.1,17.7l0,0c8.5,11.8,12.9,26,12.9,42c0,20-6.2,37.8-18.4,53.1
	c-12,15-28.9,26.8-50.1,35C997.6,313.3,973.6,317.4,947.2,317.4z M801.1,305.6h146.1c25,0,47.5-3.8,67.1-11.3
	c19.2-7.4,34.4-18,45.1-31.3c10.5-13.1,15.8-28.5,15.8-45.8c0-13.7-3.5-25.2-10.6-35.1c-7-9.8-16.5-15.9-28.9-18.9l-21.9-5.3
	l21.7-6.2c17.2-4.9,31.4-13.6,42.1-25.8s15.8-25.3,15.8-40.2c0-17.2-8-30.6-24.4-40.9c-17.1-10.7-41-16.2-71-16.2H856.4L801.1,305.6
	z M948.8,247.3h-52.5l11-55.9h50.2c9.2,0,16.6,2,22.1,5.8c6.1,4.3,9.3,10.4,9.3,17.8c0,9.6-4,17.5-12,23.6l0,0
	C969.4,244.4,960,247.3,948.8,247.3z M910.7,235.5h38.1c8.6,0,15.5-2,20.9-6.2c5-3.9,7.4-8.4,7.4-14.3c0-3.6-1.3-6.1-4.3-8.1
	c-3.5-2.4-8.7-3.7-15.4-3.7H917L910.7,235.5z M970.2,139.8h-52.9l10.6-53h50.6c7.3,0,13.1,2,17.4,5.9c4.4,4,6.7,9.6,6.7,16.5
	c0,8.8-3.1,16.2-9.3,22l0,0C987.2,136.9,979.4,139.8,970.2,139.8z M931.7,128h38.5c6.2,0,11.1-1.8,14.9-5.4l0,0
	c3.7-3.5,5.6-7.9,5.6-13.4c0-3.5-0.9-6.1-2.8-7.8c-2-1.8-5.2-2.8-9.4-2.8h-40.9L931.7,128z"/>
<path class="st0" d="M1399.3,95.2h-148.7l-7.4,35.4h135.5l-14.4,72.5h-135.5l-7.4,35.8h152.9l-14.4,72.5h-248l57.7-288.8h244.3
	L1399.3,95.2z"/>
<path d="M1364.6,317.4h-260.1l60-300.6h256.4l-16.8,84.3h-148.8l-4.9,23.6h135.5l-16.8,84.3h-135.6l-5,24h152.8L1364.6,317.4z
	 M1118.9,305.6h236l12.1-60.7h-153l9.9-47.7h135.5l12.1-60.7h-135.6l9.9-47.2h148.7l12.1-60.7h-232.3L1118.9,305.6z"/>
<path class="st0" d="M1701.6,173.5c-11.4,19.5-27.8,34.6-49.2,45.3l37.9,92.7h-107.9l-19.8-75h-35.8l-14.8,75h-95.6l57.7-288.8
	h139.7c33.8,0,59.7,7.2,77.9,21.6c18.1,14.4,27.2,35,27.2,61.6C1718.7,131.4,1713,154,1701.6,173.5z M1541.5,164h44.1
	c12.4,0,22.2-3.9,29.5-11.7s10.9-18.2,10.9-31.1c0-8.2-2.3-14.6-7-19.2c-4.7-4.5-11.3-6.8-19.8-6.8h-44.1L1541.5,164z"/>
<path d="M1699,317.4h-121.3l-19.8-75h-26.4l-14.8,75H1409l60-300.6h144.5c35,0,62.4,7.7,81.5,22.9c19.5,15.5,29.4,37.8,29.4,66.2
	c0,26.5-6,50.2-17.9,70.5l0,0c-11.1,18.9-26.8,34.1-46.8,45.1L1699,317.4z M1586.8,305.6h94.6l-36.6-89.6l4.9-2.4
	c20.3-10.1,36-24.6,46.8-43c10.8-18.5,16.3-40.2,16.3-64.6c0-25-8.2-43.6-25-57c-17-13.5-41.9-20.3-74.2-20.3h-134.8l-55.3,277h83.5
	l14.8-75h45.2L1586.8,305.6z M1585.6,169.9h-51.3l15.9-80.6h48.9c10.1,0,18.1,2.8,23.9,8.5s8.8,13.5,8.8,23.4
	c0,14.4-4.2,26.2-12.5,35.1C1611,165.3,1599.6,169.9,1585.6,169.9z M1548.7,158.1h36.9c10.7,0,19-3.2,25.1-9.9
	c6.3-6.8,9.3-15.6,9.3-27.1c0-6.6-1.7-11.5-5.2-14.9c-3.6-3.5-8.7-5.1-15.7-5.1h-39.2L1548.7,158.1z"/>
<path class="st0" d="M407.7,364.4h96.5l-53.3,274.9h-79.6l29-150.2L321,612.6h-59.2l-31-123.9l-29.4,150.6h-79.6l53.3-274.9h96.5
	L312,507.9L407.7,364.4z"/>
<path d="M455.7,645.2H364l24.5-127l-64.4,100.4H257L231.3,516L206,645.3h-91.6L170,358.6h105.8L314.2,494l90.3-135.5h106.8
	L455.7,645.2z M378.3,633.4h67.6l51-263.1h-86.1l-101,151.6l-42.7-151.6H180l-51,263.1h67.6l33.6-171.9l36.3,145.2h51.4L411.8,460
	L378.3,633.4z"/>
<path class="st0" d="M758.3,375.2c20.8,11.1,36.9,26.5,48.4,46.1s17.3,42,17.3,67.1c0,29.5-7.3,56.3-22,80.2
	c-14.6,23.9-34.6,42.7-60,56.5c-25.4,13.7-53.5,20.6-84.3,20.6c-26.9,0-50.8-5.6-71.6-16.9c-20.8-11.2-36.9-26.8-48.4-46.7
	s-17.3-42.4-17.3-67.4c0-29.5,7.3-56.2,22-80c14.6-23.8,34.6-42.4,60-55.9s53.5-20.2,84.3-20.2C713.7,358.5,737.6,364.1,758.3,375.2
	z M648.1,444c-10.1,6.5-18.2,15.5-24.5,26.9s-9.4,23.9-9.4,37.4c0,11.5,2.4,22,7.1,31.4s11,16.8,19,22.2s16.7,8,26.1,8
	c11.2,0,21.8-3.3,31.6-10s17.6-15.7,23.5-27.3c5.9-11.5,8.8-24.2,8.8-38c0-17.5-4.8-32-14.3-43.3c-9.5-11.4-21.5-17.1-35.9-17.1
	C668.9,434.2,658.2,437.5,648.1,444z"/>
<path d="M657.8,651.5c-27.8,0-52.8-5.9-74.4-17.6c-21.7-11.7-38.7-28.2-50.7-48.9s-18-44.4-18-70.4c0-30.5,7.7-58.5,22.8-83.1
	s36.1-44.1,62.3-58c26.1-13.9,55.4-20.9,87.1-20.9c27.8,0,52.8,5.8,74.3,17.4l0,0c21.7,11.6,38.7,27.8,50.7,48.3
	c12,20.4,18.1,44,18.1,70c0,30.5-7.7,58.5-22.8,83.3C792,596.3,771,616,744.9,630.2C718.8,644.3,689.4,651.5,657.8,651.5z
	 M686.8,364.4c-29.7,0-57.2,6.6-81.5,19.5s-43.7,31-57.7,53.8c-14,22.7-21.1,48.6-21.1,76.9c0,23.9,5.5,45.6,16.5,64.5
	c10.9,18.8,26.4,33.8,46.1,44.4c19.8,10.7,43,16.2,68.8,16.2c29.7,0,57.1-6.7,81.5-19.9c24.3-13.2,43.7-31.4,57.8-54.4
	c14-22.9,21.1-48.8,21.1-77.1c0-23.9-5.5-45.5-16.4-64.1s-26.4-33.3-46.1-43.9C735.7,369.8,712.6,364.4,686.8,364.4z M666.4,575.8
	c-10.6,0-20.4-3-29.4-9c-8.8-5.9-15.9-14.1-21-24.4c-5.1-10.2-7.7-21.6-7.7-34c0-14.5,3.4-28.1,10.1-40.3
	c6.7-12.2,15.6-21.9,26.5-29l0,0c11-7.1,22.8-10.8,35.2-10.8c16.1,0,29.7,6.4,40.4,19.2c10.4,12.4,15.7,28.3,15.7,47.1
	c0,14.7-3.2,28.4-9.5,40.7s-14.9,22.2-25.5,29.4C690.5,572.1,678.8,575.8,666.4,575.8z M680.1,440.1c-10,0-19.7,3-28.7,8.9l0,0
	c-9.2,6-16.8,14.3-22.6,24.8c-5.8,10.4-8.7,22.1-8.7,34.6c0,10.5,2.2,20.2,6.4,28.7s10,15.1,17,19.9c7,4.7,14.5,7,22.8,7
	c10.1,0,19.4-2.9,28.2-9c8.9-6.1,16.2-14.5,21.6-25.1c5.4-10.6,8.2-22.5,8.2-35.3c0-16-4.4-29.3-12.9-39.5
	C703,445,692.8,440.1,680.1,440.1z"/>
<path class="st0" d="M1079,364.4h82.3l-54.9,274.9h-76.1l-80-140.4l-28.2,140.4h-82.7l54.9-274.9h76.1l80.4,141.2L1079,364.4z"/>
<path d="M1111.3,645.2H1027l-74-129.7l-26,129.7h-94.8l57.3-286.7h84.3l74.3,130.4l26.1-130.4h94.4L1111.3,645.2z M1033.8,633.4
	h67.8l52.5-263.1h-70.3l-30.4,151.9l-86.5-151.9h-67.8l-52.5,263.1h70.7l30.4-151.1L1033.8,633.4z"/>
<path class="st0" d="M1385.4,382.2c19.6,9.8,34.2,23.7,44,41.9c9.8,18.2,14,39.3,12.8,63.4c-1.5,29.2-9.7,54.9-24.6,77.1
	c-14.9,22.2-34.9,39.4-60,51.6c-25.1,12.2-53.7,18.3-85.7,18.3h-122.3l52.9-267h113.1C1342.6,367.5,1365.8,372.4,1385.4,382.2z
	 M1338.3,450.4c-8.5-9.5-20.3-14.3-35.2-14.3h-25.9L1251.7,566h36.2c11.9,0,22.7-3.2,32.4-9.7c9.6-6.5,17.2-15.6,22.7-27.4
	c5.5-11.8,8.2-25.2,8.2-40.2C1351.1,472.7,1346.8,459.9,1338.3,450.4z"/>
<path d="M1271.8,640.5h-129.5l55.3-278.8h118c27.7,0,52,5.1,72.3,15.3l0,0c20.6,10.3,36.2,25.2,46.6,44.4
	c10.2,19,14.8,41.4,13.5,66.5c-1.6,30.1-10.2,57.1-25.6,80.1s-36.3,41-62.3,53.6C1334.3,634.1,1304.6,640.5,1271.8,640.5z
	 M1156.8,628.7h115.1c30.9,0,58.9-6,83.1-17.7c24.1-11.7,43.5-28.4,57.7-49.6c14.2-21.2,22.1-46.2,23.6-74.2
	c1.2-22.9-2.9-43.2-12.1-60.3c-9.1-17-23.1-30.2-41.4-39.4c-18.6-9.3-41.2-14-67.1-14h-108.3L1156.8,628.7z M1287.8,571.9h-43.4
	l27.8-141.7h30.8c16.7,0,30,5.5,39.6,16.3l0,0c9.5,10.6,14.3,24.8,14.3,42.2c0,15.8-2.9,30.1-8.7,42.7
	c-5.9,12.8-14.2,22.8-24.7,29.9C1312.9,568.3,1300.9,571.9,1287.8,571.9z M1258.8,560.1h29c10.8,0,20.4-2.8,29.1-8.7
	c8.7-5.8,15.6-14.2,20.6-25c5.1-11,7.6-23.7,7.6-37.7c0-14.4-3.8-26-11.3-34.4c-7.4-8.3-17.5-12.3-30.8-12.3h-21L1258.8,560.1z"/>
<path class="st0" d="M1635.8,634.6l-6.9-37.7h-100.2l-20.2,37.7h-89.9l156.9-267h90.7l64.4,267H1635.8z M1562.3,533.6h55.6
	l-14.1-77.7L1562.3,533.6z"/>
<path d="M1738.2,640.5h-107.3l-6.9-37.7h-91.7l-20.2,37.7h-103.8l163.9-278.8h98.7L1738.2,640.5z M1640.7,628.7h82.4l-61.5-255.2
	H1579l-150,255.2h76l20.2-37.7h108.6L1640.7,628.7z M1625,539.5h-72.5l54.2-101.4L1625,539.5z M1572.1,527.7h38.7l-9.8-54.1
	L1572.1,527.7z"/>
<path class="st0" d="M2033.6,367.5l-126.1,184.7l-13.7,82.3h-88.4l13.3-81.1L1752,367.5h88l36.6,102.9l68.9-102.9L2033.6,367.5
	L2033.6,367.5z"/>
<path d="M1898.8,640.5h-100.3l14.2-86.5l-69-192.3h100.6l34,95.7l64.2-95.7h102.3l-131.7,192.9L1898.8,640.5z M1812.4,628.7h76.4
	l13.1-78.6l120.5-176.6h-73.7l-73.7,110l-39.1-110h-75.4l64.3,179.4L1812.4,628.7z"/>
<polygon points="1548.7,358.5 1541.5,397.1 1442.3,442 1416.2,405.4 1388,376.9 1388,358.5 "/>
</svg>
